<svg width="261" height="246" viewBox="0 0 261 246" fill="none" xmlns="http://www.w3.org/2000/svg">
<path d="M261 93.7106H248.521V152.289H261V93.7106Z" fill="black"/>
<path d="M236.123 23.4469V0H223.726V11.685H211.247V23.4469H198.849V58.5788H236.123V46.8937H248.521V35.1319H261V23.4469H236.123Z" fill="black"/>
<path d="M248.521 152.289H236.124V175.736H248.521V152.289Z" fill="black"/>
<path d="M248.521 70.2637H236.124V93.7106H248.521V70.2637Z" fill="black"/>
<path d="M236.123 175.736H223.726V199.183H236.123V175.736Z" fill="black"/>
<path d="M223.726 199.183H211.247V210.868H223.726V199.183Z" fill="black"/>
<path d="M211.247 210.868H186.452V222.553H211.247V210.868Z" fill="black"/>
<path d="M198.849 58.5787H186.452V70.2637H198.849V58.5787Z" fill="black"/>
<path d="M186.452 70.2637H173.973V82.0256H186.452V70.2637Z" fill="black"/>
<path d="M186.452 222.553H161.575V234.315H186.452V222.553Z" fill="black"/>
<path d="M173.973 105.472H161.575V140.604H173.973V105.472Z" fill="black"/>
<path d="M173.973 82.0256H161.575V93.7106H173.973V82.0256Z" fill="black"/>
<path d="M186.452 11.685H161.575V23.4469H186.452V11.685Z" fill="black"/>
<path d="M161.575 140.604H149.096V152.289H161.575V140.604Z" fill="black"/>
<path d="M161.575 93.7106H149.096V105.473H161.575V93.7106Z" fill="black"/>
<path d="M161.575 234.315H99.4248V246H161.575V234.315Z" fill="black"/>
<path d="M149.096 105.472H136.699V117.157H149.096V105.472Z" fill="black"/>
<path d="M149.096 152.289H111.822V163.974H149.096V152.289Z" fill="black"/>
<path d="M136.699 117.157H124.301V128.842H136.699V117.157Z" fill="black"/>
<path d="M149.096 82.0256H111.822V93.7106H149.096V82.0256Z" fill="black"/>
<path d="M161.575 0H99.4248V11.685H161.575V0Z" fill="black"/>
<path d="M111.822 140.604H99.4248V152.289H111.822V140.604Z" fill="black"/>
<path d="M111.822 93.7106H99.4248V105.473H111.822V93.7106Z" fill="black"/>
<path d="M99.4247 222.553H74.5481V234.315H99.4247V222.553Z" fill="black"/>
<path d="M99.4246 105.472H86.9456V140.604H99.4246V105.472Z" fill="black"/>
<path d="M99.4247 11.685H74.5481V23.4469H99.4247V11.685Z" fill="black"/>
<path d="M74.5482 210.868H49.6716V222.553H74.5482V210.868Z" fill="black"/>
<path d="M74.5482 23.4469H49.6716V35.1319H74.5482V23.4469Z" fill="black"/>
<path d="M62.1507 93.7106H74.5482V70.2638H99.4248V58.5788H173.973V46.8938H161.575V35.1319H99.4248V46.8938H74.5482V58.5788H62.1507V70.2638H49.6717V93.7106H37.2742V152.289H49.6717V175.736H62.1507V187.421H74.5482V199.183H99.4248V210.868H161.575V199.183H186.452V187.421H198.849V175.736H211.247V152.289H223.726V93.7106H211.247V82.0256H198.849V152.289H186.452V175.736H173.973V187.421H99.4248V175.736H74.5482V152.289H62.1507V93.7106Z" fill="black"/>
<path d="M49.6717 199.183H37.2742V210.868H49.6717V199.183Z" fill="black"/>
<path d="M49.6717 35.1319H37.2742V46.8938H49.6717V35.1319Z" fill="black"/>
<path d="M37.274 175.736H24.8765V199.183H37.274V175.736Z" fill="black"/>
<path d="M37.274 46.8937H24.8765V70.2637H37.274V46.8937Z" fill="black"/>
<path d="M24.8765 152.289H12.3975V175.736H24.8765V152.289Z" fill="black"/>
<path d="M24.8765 70.2637H12.3975V93.7106H24.8765V70.2637Z" fill="black"/>
<path d="M12.3975 93.7106H0V152.289H12.3975V93.7106Z" fill="black"/>
</svg>
