<svg width="290" height="254" viewBox="0 0 290 254" fill="none" xmlns="http://www.w3.org/2000/svg">
<path d="M-0.000102043 202.659H13.7749V215.294H-0.000102043V202.659Z" fill="black"/>
<path d="M4.57764e-05 113.964V88.6113H13.775V101.329H27.6407V75.9763H41.4157V126.683H55.2813V113.964H69.0563V139.318H41.4157V177.306H110.472V190.024H4.57764e-05V177.306H27.6407V113.964H4.57764e-05Z" fill="black"/>
<path d="M7.62939e-06 0H27.6406V12.635H7.62939e-06V0Z" fill="black"/>
<path d="M41.4156 202.659H55.2812V215.294H41.4156V202.659Z" fill="black"/>
<path d="M41.4155 25.3531H69.0562V37.9881H41.4155V25.3531Z" fill="black"/>
<path d="M96.6969 202.659H110.472V215.294H96.6969V202.659Z" fill="black"/>
<path d="M110.472 75.9762H151.887V88.6113H110.472V101.329H96.6968V37.9881H110.472V75.9762Z" fill="black"/>
<path d="M165.753 126.682H193.303V139.318H165.753V151.953H193.303V139.318H207.169V190.024H165.753V202.659H207.169V215.294H248.584V228.053H234.719V253.323H207.169V240.688H220.944V228.053H179.528V215.335H165.753V228.053H138.113V215.335H151.888V164.712H138.113V177.347H124.247V151.994H151.888V114.006H110.472V101.371H165.753V126.682ZM165.753 177.306H193.303V164.671H165.753V177.306Z" fill="black"/>
<path d="M165.753 0H193.303V12.635H165.753V0Z" fill="black"/>
<path d="M193.303 50.6231H207.169V75.9763H193.303V50.6231Z" fill="black"/>
<path d="M110.472 25.3531H220.944V37.9881H110.472V25.3531Z" fill="black"/>
<path d="M207.169 190.024H220.944V202.659H207.169V190.024Z" fill="black"/>
<path d="M220.944 37.9881H234.719V126.682H220.944V37.9881Z" fill="black"/>
<path d="M234.719 126.682H248.584V164.671H234.719V126.682Z" fill="black"/>
<path d="M248.584 202.659H262.359V215.294H248.584V202.659Z" fill="black"/>
<path d="M248.584 164.671H262.359V177.306H248.584V164.671Z" fill="black"/>
<path d="M262.359 190.024H276.225V202.659H262.359V190.024Z" fill="black"/>
<path d="M262.359 37.9881H290V50.6231H262.359V37.9881Z" fill="black"/>
<path d="M276.225 164.671H262.359V151.953H276.225V139.318H290V190.024H276.225V164.671Z" fill="black"/>
</svg>
