<svg width="60" height="60" viewBox="0 0 60 60" fill="none" xmlns="http://www.w3.org/2000/svg">
<path d="M59.9999 22.8563H57.1499V37.1438H59.9999V22.8563Z" fill="black"/>
<path d="M57.15 37.1437H54.2812V42.8625H57.15V37.1437Z" fill="black"/>
<path d="M57.15 17.1375H54.2812V22.8563H57.15V17.1375Z" fill="black"/>
<path d="M54.2812 42.8625H51.4312V48.5625H54.2812V42.8625Z" fill="black"/>
<path d="M54.2812 11.4188H51.4312V17.1375H54.2812V11.4188Z" fill="black"/>
<path d="M51.4313 48.5625H48.5625V51.4313H51.4313V48.5625Z" fill="black"/>
<path d="M51.4313 8.56873H48.5625V11.4187H51.4313V8.56873Z" fill="black"/>
<path d="M48.5625 51.4313H42.8625V54.2813H48.5625V51.4313Z" fill="black"/>
<path d="M48.5625 5.71875H42.8625V8.56875H48.5625V5.71875Z" fill="black"/>
<path d="M42.8626 54.2812H37.1438V57.15H42.8626V54.2812Z" fill="black"/>
<path d="M42.8626 2.84998H37.1438V5.71873H42.8626V2.84998Z" fill="black"/>
<path d="M37.1437 57.15H22.8562V60H37.1437V57.15Z" fill="black"/>
<path d="M34.2937 37.1437H25.7062V39.9937H22.8562V48.5625H25.7062V51.4312H34.2937V48.5625H37.1437V39.9937H34.2937V37.1437Z" fill="black"/>
<path d="M34.2937 8.56873H25.7062V11.4187H22.8562V28.575H25.7062V34.2937H34.2937V28.575H37.1437V11.4187H34.2937V8.56873Z" fill="black"/>
<path d="M37.1437 0H22.8562V2.85H37.1437V0Z" fill="black"/>
<path d="M22.8562 54.2812H17.1375V57.15H22.8562V54.2812Z" fill="black"/>
<path d="M22.8562 2.84998H17.1375V5.71873H22.8562V2.84998Z" fill="black"/>
<path d="M17.1375 51.4313H11.4187V54.2813H17.1375V51.4313Z" fill="black"/>
<path d="M17.1375 5.71875H11.4187V8.56875H17.1375V5.71875Z" fill="black"/>
<path d="M11.4188 48.5625H8.56885V51.4313H11.4188V48.5625Z" fill="black"/>
<path d="M11.4188 8.56873H8.56885V11.4187H11.4188V8.56873Z" fill="black"/>
<path d="M8.56875 42.8625H5.71875V48.5625H8.56875V42.8625Z" fill="black"/>
<path d="M8.56875 11.4188H5.71875V17.1375H8.56875V11.4188Z" fill="black"/>
<path d="M5.71885 37.1437H2.8501V42.8625H5.71885V37.1437Z" fill="black"/>
<path d="M5.71885 17.1375H2.8501V22.8563H5.71885V17.1375Z" fill="black"/>
<path d="M2.85 22.8563H0V37.1438H2.85V22.8563Z" fill="black"/>
</svg>
