<svg width="95" height="118" viewBox="0 0 95 118" fill="none" xmlns="http://www.w3.org/2000/svg">
<path d="M94.2563 99.0438H87.9863V111.434H94.2563V99.0438Z" fill="#000001"/>
<path d="M87.9863 111.434H6.27002V117.65H87.9863V111.434Z" fill="#000001"/>
<path d="M75.405 74.3031H69.135V80.4781H75.405V74.3031Z" fill="#000001"/>
<path d="M69.135 68.1281H62.8237V74.3031H69.135V68.1281Z" fill="#000001"/>
<path d="M37.7025 68.1281V37.1719H56.5537V68.1281H62.8237V37.1719H75.405V30.9563H81.7162V0H69.135V6.21562H56.5537V0H37.7025V6.21562H25.1212V0H12.54V30.9563H18.8512V37.1719H31.4531V68.1281H37.7025ZM31.4531 18.6062H62.8444V24.7812H31.4531V18.6062Z" fill="#000001"/>
<path d="M31.4325 68.1281H25.1213V74.3031H31.4325V68.1281Z" fill="#000001"/>
<path d="M25.1213 74.3031H18.8513V80.4781H25.1213V74.3031Z" fill="#000001"/>
<path d="M18.8513 92.8688V80.4781H12.54V92.8688H6.27002V99.0438H87.9863V92.8688H81.7163V80.4781H75.405V92.8688H18.8513Z" fill="#000001"/>
<path d="M6.27 99.0438H0V111.434H6.27V99.0438Z" fill="#000001"/>
</svg>
