<svg width="132" height="131" viewBox="0 0 132 131" fill="none" xmlns="http://www.w3.org/2000/svg">
<path d="M130.459 34.409L125.331 32.9313L123.942 37.7509L129.07 39.2286L130.459 34.409Z" fill="#000001"/>
<path d="M106.369 79.4608L101.208 77.9734L88.7535 121.192L21.9244 101.934L34.3787 58.7155L29.251 57.2379L16.7967 100.457L6.5075 97.4919L5.12772 102.28L102.791 130.423L104.17 125.635L93.915 122.68L106.369 79.4608Z" fill="#000001"/>
<path d="M82.4187 46.5622L102.997 52.4922L108.525 33.3083L87.9469 27.3783L82.4187 46.5622ZM91.7286 33.6538L96.8563 35.1314L94.0877 44.7391L88.96 43.2615L91.7286 33.6538Z" fill="#000001"/>
<path d="M82.6218 103.8L36.3711 90.4722L34.9822 95.2918L81.233 108.62L82.6218 103.8Z" fill="#000001"/>
<path d="M86.7702 89.4043L40.5195 76.0763L39.1306 80.896L85.3814 94.2239L86.7702 89.4043Z" fill="#000001"/>
<path d="M102.588 73.1853L35.7585 53.9274L34.3787 58.7155L101.208 77.9734L102.588 73.1853Z" fill="#000001"/>
<path d="M36.168 33.2343L41.2957 34.712L48.2128 10.7084L58.5019 13.6734L51.5849 37.677L41.2957 34.712L39.9069 39.5316L50.1961 42.4966L48.8163 47.2847L110.518 65.065L120.203 31.4537L125.331 32.9313L126.711 28.1432L39.3371 2.965L37.9573 7.75311L43.085 9.23076L36.168 33.2343ZM63.6297 15.151L115.042 29.9663L106.736 58.7895L55.3238 43.9742L63.6297 15.151Z" fill="#000001"/>
<path d="M37.9573 7.75312L32.7958 6.26575L31.407 11.0854L36.5684 12.5727L37.9573 7.75312Z" fill="#000001"/>
<path d="M31.407 11.0854L26.2793 9.60772L1.37977 96.0142L6.5075 97.4919L31.407 11.0854Z" fill="#000001"/>
</svg>
