<svg width="181" height="189" viewBox="0 0 181 189" fill="none" xmlns="http://www.w3.org/2000/svg">
<path d="M82.1738 14.6959L78.843 20.8L73.5817 17.929L63.6328 36.1614L68.8941 39.0323L65.585 45.0965L70.8463 47.9674L67.5373 54.0316L72.8332 56.9214L69.5023 63.0255L74.7636 65.8964L71.4546 71.9606L76.7505 74.8504L73.4196 80.9545L78.6809 83.8254L82.0118 77.7214L87.2731 80.5923L90.5821 74.5282L95.878 77.418L99.2089 71.314L104.47 74.185L107.779 68.1208L113.041 70.9918L116.35 64.9276L111.088 62.0567L114.419 55.9526L109.158 53.0816L112.467 47.0175L107.171 44.1276L110.48 38.0635L105.219 35.1925L108.55 29.0885L103.288 26.2175L106.597 20.1534L90.7442 11.5027L87.4351 17.5669L82.1738 14.6959ZM89.4002 26.5608L86.0912 32.6249L91.3525 35.4959L94.6615 29.4317L99.9574 32.3216L96.6484 38.3857L91.3525 35.4959L88.0434 41.56L93.3393 44.4499L90.0085 50.5539L95.2698 53.4249L98.6006 47.3208L103.862 50.1918L100.531 56.2958L95.2698 53.4249L91.9607 59.489L97.222 62.36L93.9129 68.4241L88.6517 65.5532L91.9607 59.489L86.6994 56.6181L83.3904 62.6822L78.0945 59.7924L81.4035 53.7282L86.6994 56.6181L90.0085 50.5539L84.7126 47.6641L88.0434 41.56L82.7821 38.6891L79.4513 44.7931L74.1554 41.9033L77.4862 35.7992L82.7821 38.6891L86.0912 32.6249L80.7953 29.7351L84.1043 23.6709L89.4002 26.5608Z" fill="#000001"/>
<path d="M132.203 73.5783L137.464 76.4492L134.155 82.5134L139.416 85.3843L132.776 97.5525L138.072 100.442L141.403 94.3383L146.664 97.2093L153.282 85.081L148.021 82.21L151.352 76.106L146.056 73.2161L149.365 67.152L144.104 64.281L147.413 58.2169L136.856 52.4561L133.547 58.5202L128.285 55.6493L124.976 61.7134L135.533 67.4742L132.203 73.5783Z" fill="#000001"/>
<path d="M119.68 58.8236L116.35 64.9276L121.645 67.8175L124.976 61.7134L119.68 58.8236Z" fill="#000001"/>
<path d="M126.907 70.6884L123.598 76.7526L128.894 79.6424L132.203 73.5783L126.907 70.6884Z" fill="#000001"/>
<path d="M118.336 73.8816L115.027 79.9457L120.289 82.8167L123.598 76.7525L118.336 73.8816Z" fill="#000001"/>
<path d="M127.515 94.6816L124.206 100.746L129.467 103.617L132.776 97.5525L127.515 94.6816Z" fill="#000001"/>
<path d="M115.614 103.979L110.318 101.089L107.009 107.153L101.748 104.282L98.4385 110.346L93.1426 107.456L89.8118 113.56L84.5505 110.69L81.2414 116.754L86.5027 119.625L83.1937 125.689L88.4896 128.579L85.1587 134.683L90.42 137.554L87.111 143.618L92.4069 146.508L89.0761 152.612L94.3373 155.483L91.0283 161.547L106.847 170.179L110.156 164.114L115.452 167.004L118.783 160.9L124.044 163.771L133.993 145.539L128.732 142.668L132.041 136.604L126.745 133.714L130.076 127.61L124.814 124.739L128.123 118.675L122.827 115.785L126.136 109.721L120.875 106.85L124.206 100.746L118.945 97.8747L115.614 103.979ZM108.996 116.107L105.665 122.211L110.926 125.082L114.257 118.978L119.518 121.849L116.187 127.953L110.926 125.082L107.617 131.146L112.878 134.017L109.569 140.081L114.865 142.971L118.174 136.907L123.436 139.778L120.127 145.842L114.865 142.971L111.534 149.075L116.796 151.946L113.487 158.01L108.225 155.139L111.534 149.075L106.239 146.185L102.929 152.25L97.6682 149.379L100.977 143.314L106.239 146.185L109.569 140.081L104.308 137.21L107.617 131.146L102.356 128.275L99.0468 134.339L93.7509 131.45L97.0599 125.385L102.356 128.275L105.665 122.211L100.369 119.321L103.7 113.217L108.996 116.107Z" fill="#000001"/>
<path d="M78.6809 83.8254L75.3718 89.8896L80.6331 92.7605L83.9422 86.6964L78.6809 83.8254Z" fill="#000001"/>
<path d="M68.1237 78.0646L64.8146 84.1288L70.1105 87.0186L73.4196 80.9545L68.1237 78.0646Z" fill="#000001"/>
<path d="M80.6332 92.7605L77.3241 98.8247L82.62 101.715L85.9291 95.6504L80.6332 92.7605Z" fill="#000001"/>
<path d="M70.1106 87.0186L66.8015 93.0828L72.0628 95.9537L75.3719 89.8896L70.1106 87.0186Z" fill="#000001"/>
<path d="M82.62 101.715L79.2892 107.819L84.5505 110.69L87.8813 104.585L82.62 101.715Z" fill="#000001"/>
<path d="M72.0628 95.9537L68.732 102.058L73.9933 104.929L77.3241 98.8247L72.0628 95.9537Z" fill="#000001"/>
<path d="M73.9933 104.929L70.6842 110.993L75.9801 113.883L79.2892 107.819L73.9933 104.929Z" fill="#000001"/>
<path d="M75.9801 113.883L72.6711 119.947L77.9324 122.818L81.2414 116.754L75.9801 113.883Z" fill="#000001"/>
<path d="M26.5378 79.0334L16.5888 97.2658L21.8501 100.137L31.799 81.9044L26.5378 79.0334Z" fill="#000001"/>
<path d="M65.4229 108.122L60.1616 105.251L63.4707 99.1868L58.1748 96.297L64.8147 84.1288L59.5534 81.2578L49.6044 99.4901L54.8657 102.361L51.5567 108.425L56.8526 111.315L53.5217 117.419L69.3402 126.051L72.6711 119.947L62.1139 114.186L65.4229 108.122Z" fill="#000001"/>
<path d="M39.0472 93.7293L32.4073 105.898L37.6686 108.768L44.3085 96.6003L39.0472 93.7293Z" fill="#000001"/>
<path d="M37.6686 108.769L34.3596 114.833L39.6555 117.722L42.9645 111.658L37.6686 108.769Z" fill="#000001"/>
<path d="M21.8502 100.137L15.2103 112.305L20.5062 115.195L27.1461 103.027L21.8502 100.137Z" fill="#000001"/>
<path d="M39.6555 117.722L36.3246 123.827L46.8818 129.587L50.2127 123.483L39.6555 117.722Z" fill="#000001"/>
<path d="M20.5061 115.195L17.1971 121.259L22.4584 124.13L25.7674 118.066L20.5061 115.195Z" fill="#000001"/>
<path d="M22.4584 124.13L19.1494 130.194L29.7066 135.955L33.0156 129.891L22.4584 124.13Z" fill="#000001"/>
<path d="M29.7065 135.955L26.3757 142.059L42.1942 150.691L45.525 144.587L29.7065 135.955Z" fill="#000001"/>
</svg>
