<svg width="53" height="73" viewBox="0 0 53 73" fill="none" xmlns="http://www.w3.org/2000/svg">
<path d="M18.5411 3.19319L15.2103 9.29723L9.94898 6.42627L2.53869e-05 24.6586L5.26132 27.5296L1.95226 33.5937L7.21356 36.4647L3.9045 42.5288L9.20041 45.4187L5.86957 51.5227L11.1309 54.3937L7.82181 60.4578L13.1177 63.3477L9.78689 69.4517L15.0482 72.3227L18.379 66.2186L23.6403 69.0896L26.9494 63.0255L32.2453 65.9153L35.5761 59.8113L40.8374 62.6822L44.1465 56.6181L49.4078 59.489L52.7168 53.4249L47.4555 50.5539L50.7863 44.4499L45.525 41.5789L48.8341 35.5148L43.5382 32.6249L46.8473 26.5608L41.586 23.6898L44.9168 17.5858L39.6555 14.7148L42.9646 8.65065L27.1114 -4.49891e-06L23.8024 6.06415L18.5411 3.19319ZM25.7675 15.058L22.4584 21.1222L27.7197 23.9931L31.0288 17.929L36.3247 20.8188L33.0156 26.883L27.7197 23.9931L24.4106 30.0573L29.7066 32.9471L26.3757 39.0512L31.637 41.9222L34.9678 35.8181L40.2291 38.6891L36.8983 44.7931L31.637 41.9222L28.328 47.9863L33.5893 50.8573L30.2802 56.9214L25.0189 54.0504L28.328 47.9863L23.0667 45.1153L19.7576 51.1795L14.4617 48.2896L17.7708 42.2255L23.0667 45.1153L26.3757 39.0512L21.0798 36.1613L24.4106 30.0573L19.1494 27.1863L15.8185 33.2904L10.5226 30.4005L13.8534 24.2965L19.1494 27.1863L22.4584 21.1222L17.1625 18.2323L20.4716 12.1682L25.7675 15.058Z" fill="#000001"/>
</svg>
