<svg width="53" height="73" viewBox="0 0 53 73" fill="none" xmlns="http://www.w3.org/2000/svg">
<path d="M34.3724 6.10405L29.0765 3.2142L25.7675 9.27835L20.5062 6.40739L17.1971 12.4715L11.9012 9.5817L8.57038 15.6857L3.30909 12.8148L2.72141e-05 18.8789L5.26132 21.7499L1.95226 27.814L7.24817 30.7039L3.91734 36.8079L9.17863 39.6789L5.86957 45.743L11.1655 48.6329L7.83466 54.7369L13.0959 57.6079L9.78689 63.672L25.6054 72.3038L28.9144 66.2397L34.2103 69.1295L37.5412 63.0255L42.8025 65.8964L52.7514 47.6641L47.4901 44.7931L50.7992 38.729L45.5033 35.8391L48.8341 29.7351L43.5728 26.8641L46.8819 20.8L41.586 17.9101L44.895 11.846L39.6337 8.97501L42.9646 2.87096L37.7033 1.45827e-07L34.3724 6.10405ZM27.7543 18.2324L24.4235 24.3364L29.6848 27.2074L33.0156 21.1033L38.2769 23.9743L34.9461 30.0783L29.6848 27.2074L26.3757 33.2715L31.637 36.1425L28.328 42.2066L33.6239 45.0965L36.9329 39.0323L42.1942 41.9033L38.8852 47.9674L33.6239 45.0965L30.293 51.2005L35.5543 54.0715L32.2453 60.1356L26.984 57.2647L30.293 51.2005L24.9971 48.3107L21.6881 54.3748L16.4268 51.5039L19.7358 45.4397L24.9971 48.3107L28.328 42.2066L23.0667 39.3357L26.3757 33.2715L21.1144 30.4005L17.8054 36.4647L12.5095 33.5749L15.8185 27.5107L21.1144 30.4005L24.4235 24.3364L19.1276 21.4465L22.4584 15.3425L27.7543 18.2324Z" fill="#000001"/>
</svg>
