<svg width="181" height="177" viewBox="0 0 181 177" fill="none" xmlns="http://www.w3.org/2000/svg">
<path d="M158.529 72.414L152.334 75.418L160.435 92.1233L166.63 89.1193L158.529 72.414Z" fill="#000001"/>
<path d="M117.221 3.00397L111.067 5.98831L113.761 11.5446L107.566 14.5485L110.278 20.1413L116.473 17.1374L119.167 22.6936L125.321 19.7093L122.627 14.153L128.822 11.149L126.11 5.55624L119.915 8.56022L117.221 3.00397Z" fill="#000001"/>
<path d="M136.134 42.0074L129.979 44.9917L146.18 78.4023L152.334 75.418L136.134 42.0074Z" fill="#000001"/>
<path d="M160.435 92.1233L148.085 98.1116L150.779 103.668L163.129 97.6795L160.435 92.1233Z" fill="#000001"/>
<path d="M124.573 33.8427L118.378 36.8467L123.784 47.9957L129.979 44.9917L124.573 33.8427Z" fill="#000001"/>
<path d="M150.779 103.668L144.625 106.652L147.336 112.245L153.491 109.261L150.779 103.668Z" fill="#000001"/>
<path d="M142.679 86.9626L136.524 89.9469L141.93 101.096L148.085 98.1116L142.679 86.9626Z" fill="#000001"/>
<path d="M115.684 31.2904L109.529 34.2748L112.223 39.831L118.378 36.8467L115.684 31.2904Z" fill="#000001"/>
<path d="M147.336 112.245L141.182 115.229L143.876 120.786L150.031 117.801L147.336 112.245Z" fill="#000001"/>
<path d="M117.629 50.98L111.475 53.9644L114.169 59.5206L107.974 62.5246L110.668 68.0809L116.863 65.0769L119.575 70.6697L125.73 67.6853L123.018 62.0925L129.172 59.1082L126.478 53.5519L120.324 56.5363L117.629 50.98Z" fill="#000001"/>
<path d="M106.817 28.6819L94.4674 34.6703L97.1793 40.2631L109.529 34.2748L106.817 28.6819Z" fill="#000001"/>
<path d="M143.876 120.786L131.526 126.774L134.238 132.367L146.588 126.378L143.876 120.786Z" fill="#000001"/>
<path d="M94.8756 82.6463L102.976 99.3516L121.48 90.379L113.38 73.6737L94.8756 82.6463ZM112.631 87.8071L106.436 90.8111L103.724 85.2182L109.92 82.2143L112.631 87.8071Z" fill="#000001"/>
<path d="M134.238 132.367L91.0344 153.316L93.7286 158.872L136.932 137.923L134.238 132.367Z" fill="#000001"/>
<path d="M105.67 104.908L99.5155 107.892L104.922 119.041L111.076 116.057L105.67 104.908Z" fill="#000001"/>
<path d="M91.7732 29.114L60.9191 44.075L63.6133 49.6312L94.4674 34.6703L91.7732 29.114Z" fill="#000001"/>
<path d="M82.5259 88.6346L88.721 85.6307L86.0091 80.0379L92.1637 77.0535L89.4695 71.4973L83.3149 74.4816L80.6207 68.9254L74.4256 71.9293L77.1198 77.4856L70.9652 80.4699L73.6594 86.0262L79.814 83.0418L82.5259 88.6346Z" fill="#000001"/>
<path d="M104.922 119.041L92.5719 125.03L95.2661 130.586L107.616 124.598L104.922 119.041Z" fill="#000001"/>
<path d="M63.6133 49.6313L51.3041 55.6L54.016 61.1928L66.3253 55.2241L63.6133 49.6313Z" fill="#000001"/>
<path d="M87.1658 113.881L81.0112 116.865L86.4173 128.014L92.5719 125.03L87.1658 113.881Z" fill="#000001"/>
<path d="M54.016 61.1927L47.8209 64.1967L50.5151 69.7529L56.7102 66.749L54.016 61.1927Z" fill="#000001"/>
<path d="M43.2038 38.8946L37.0087 41.8986L39.7029 47.4548L45.898 44.4509L43.2038 38.8946Z" fill="#000001"/>
<path d="M88.3225 147.723L75.9728 153.712L78.6847 159.304L91.0344 153.316L88.3225 147.723Z" fill="#000001"/>
<path d="M50.5151 69.7529L44.3605 72.7373L49.7666 83.8863L55.9212 80.902L50.5151 69.7529Z" fill="#000001"/>
<path d="M49.7666 83.8864L43.5715 86.8904L59.7722 120.301L65.9673 117.297L49.7666 83.8864Z" fill="#000001"/>
<path d="M73.2786 148.155L67.124 151.14L69.8182 156.696L75.9728 153.712L73.2786 148.155Z" fill="#000001"/>
<path d="M32.7593 64.5922L26.6047 67.5766L34.705 84.2819L40.8596 81.2975L32.7593 64.5922Z" fill="#000001"/>
<path d="M64.412 145.547L58.2574 148.531L60.9694 154.124L67.124 151.14L64.412 145.547Z" fill="#000001"/>
<path d="M59.7721 120.301L47.4629 126.27L50.1571 131.826L62.4663 125.857L59.7721 120.301Z" fill="#000001"/>
<path d="M23.9105 62.0203L11.5607 68.0086L14.2549 73.5649L26.6047 67.5766L23.9105 62.0203Z" fill="#000001"/>
<path d="M55.5632 142.975L49.3681 145.979L52.0623 151.535L58.2574 148.531L55.5632 142.975Z" fill="#000001"/>
<path d="M44.7687 120.713L38.5736 123.717L41.2678 129.274L47.4629 126.27L44.7687 120.713Z" fill="#000001"/>
<path d="M34.705 84.2819L16.2006 93.2546L18.9126 98.8474L37.4169 89.8747L34.705 84.2819Z" fill="#000001"/>
<path d="M23.162 76.1537L16.9669 79.1577L19.6611 84.7139L25.8562 81.71L23.162 76.1537Z" fill="#000001"/>
<path d="M41.2678 129.274L35.1132 132.258L43.2135 148.963L49.3681 145.979L41.2678 129.274Z" fill="#000001"/>
<path d="M30.4556 106.975L24.3009 109.96L27.0129 115.553L33.1675 112.568L30.4556 106.975Z" fill="#000001"/>
<path d="M14.2549 73.5649L8.10032 76.5492L10.8122 82.142L16.9669 79.1577L14.2549 73.5649Z" fill="#000001"/>
</svg>
