<svg width="32" height="32" viewBox="0 0 32 32" fill="none" xmlns="http://www.w3.org/2000/svg">
<path d="M30.47 9.14H32V0H22.85V1.52H28.95V3.05H30.47V9.14Z" fill="#FF383C"/>
<path d="M22.85 30.48V32H32V22.86H30.47V28.95H28.95V30.48H22.85Z" fill="#FF383C"/>
<path d="M28.95 27.43H27.42V28.95H28.95V27.43Z" fill="#FF383C"/>
<path d="M28.95 3.04999H27.42V4.56999H28.95V3.04999Z" fill="#FF383C"/>
<path d="M27.42 25.9H25.9V27.43H27.42V25.9Z" fill="#FF383C"/>
<path d="M27.42 4.57001H25.9V6.09001H27.42V4.57001Z" fill="#FF383C"/>
<path d="M25.9 24.38H24.38V25.9H25.9V24.38Z" fill="#FF383C"/>
<path d="M25.9 6.09H24.38V7.62H25.9V6.09Z" fill="#FF383C"/>
<path d="M24.38 22.86H22.85V24.38H24.38V22.86Z" fill="#FF383C"/>
<path d="M24.38 7.62H22.85V9.14H24.38V7.62Z" fill="#FF383C"/>
<path d="M22.85 21.33H21.33V22.86H22.85V21.33Z" fill="#FF383C"/>
<path d="M22.85 9.14001H21.33V10.67H22.85V9.14001Z" fill="#FF383C"/>
<path d="M21.33 19.81H19.8V21.33H21.33V19.81Z" fill="#FF383C"/>
<path d="M21.33 10.67H19.8V12.19H21.33V10.67Z" fill="#FF383C"/>
<path d="M19.8 18.29H18.28V19.81H19.8V18.29Z" fill="#FF383C"/>
<path d="M19.8 12.19H18.28V13.71H19.8V12.19Z" fill="#FF383C"/>
<path d="M18.28 16.76H16.76V18.29H18.28V16.76Z" fill="#FF383C"/>
<path d="M18.28 13.71H16.76V15.24H18.28V13.71Z" fill="#FF383C"/>
<path d="M16.76 15.24H15.23V16.76H16.76V15.24Z" fill="#FF383C"/>
<path d="M15.23 16.76H13.71V18.29H15.23V16.76Z" fill="#FF383C"/>
<path d="M15.23 13.71H13.71V15.24H15.23V13.71Z" fill="#FF383C"/>
<path d="M13.71 18.29H12.19V19.81H13.71V18.29Z" fill="#FF383C"/>
<path d="M13.71 12.19H12.19V13.71H13.71V12.19Z" fill="#FF383C"/>
<path d="M12.19 19.81H10.66V21.33H12.19V19.81Z" fill="#FF383C"/>
<path d="M12.19 10.67H10.66V12.19H12.19V10.67Z" fill="#FF383C"/>
<path d="M10.66 21.33H9.14V22.86H10.66V21.33Z" fill="#FF383C"/>
<path d="M10.66 9.14001H9.14V10.67H10.66V9.14001Z" fill="#FF383C"/>
<path d="M9.14 22.86H7.61V24.38H9.14V22.86Z" fill="#FF383C"/>
<path d="M9.14 7.62H7.61V9.14H9.14V7.62Z" fill="#FF383C"/>
<path d="M7.61 24.38H6.09V25.9H7.61V24.38Z" fill="#FF383C"/>
<path d="M7.61 6.09H6.09V7.62H7.61V6.09Z" fill="#FF383C"/>
<path d="M6.09 25.9H4.57V27.43H6.09V25.9Z" fill="#FF383C"/>
<path d="M6.09 4.57001H4.57V6.09001H6.09V4.57001Z" fill="#FF383C"/>
<path d="M4.57 27.43H3.04V28.95H4.57V27.43Z" fill="#FF383C"/>
<path d="M4.57 3.04999H3.04V4.56999H4.57V3.04999Z" fill="#FF383C"/>
<path d="M9.14 1.52V0H0V9.14H1.52V3.05H3.04V1.52H9.14Z" fill="#FF383C"/>
<path d="M9.14 30.48H3.04V28.95H1.52V22.86H0V32H9.14V30.48Z" fill="#FF383C"/>
</svg>
