<svg width="153" height="124" viewBox="0 0 153 124" fill="none" xmlns="http://www.w3.org/2000/svg">
<path d="M109.299 70.835V53.1262H43.7006V70.835H0V124H153V70.835H109.299ZM43.7006 118.071H7.31531V76.7637H43.7006V118.071ZM101.984 118.071H51.0159V59.055H101.984V118.071ZM145.732 118.071H109.299V76.7637H145.732V118.071Z" fill="#000001"/>
<path d="M138.417 82.6537H116.567V88.5825H131.15V94.4725H116.567V100.362H131.15V106.291H116.567V112.181H138.417V82.6537Z" fill="#000001"/>
<path d="M138.417 23.5988H123.882V29.5275H138.417V23.5988Z" fill="#000001"/>
<path d="M123.882 0H116.567V5.89H123.882V0Z" fill="#000001"/>
<path d="M116.567 5.89001H109.299V11.8188H116.567V5.89001Z" fill="#000001"/>
<path d="M87.4492 88.5825H80.1339V64.945H65.5989V70.835H72.8664V88.5825H65.5989V94.4725H87.4492V88.5825Z" fill="#000001"/>
<path d="M80.1337 0H72.8662V11.8187H80.1337V0Z" fill="#000001"/>
<path d="M43.7007 17.7087V41.3075H51.016V47.2362H101.984V41.3075H109.299V17.7087H101.984V23.5987H94.7166V29.5275H87.4491V23.5987H80.1338V17.7087H72.8663V23.5987H65.5988V29.5275H58.2835V23.5987H51.016V17.7087H43.7007ZM87.4491 35.4175H94.7166V41.3075H87.4491V35.4175ZM72.8663 35.4175H80.1338V41.3075H72.8663V35.4175ZM58.2835 35.4175H65.5988V41.3075H58.2835V35.4175Z" fill="#000001"/>
<path d="M43.7006 5.89001H36.4331V11.8188H43.7006V5.89001Z" fill="#000001"/>
<path d="M36.433 0H29.1655V5.89H36.433V0Z" fill="#000001"/>
<path d="M36.4331 106.291H21.8503V100.362H36.4331V82.6537H14.5828V88.5825H29.1656V94.4725H14.5828V112.181H36.4331V106.291Z" fill="#000001"/>
<path d="M29.1656 23.5988H14.5828V29.5275H29.1656V23.5988Z" fill="#000001"/>
</svg>
