<svg width="152" height="132" viewBox="0 0 152 132" fill="none" xmlns="http://www.w3.org/2000/svg">
<path d="M152 6.58268H144.37V105.583H152V6.58268Z" fill="#000001"/>
<path d="M121.58 132V125.374H129.16V112.165H144.37V105.583H30.3701V112.165H38V118.791H45.58V112.165H60.79V118.791H68.3701V112.165H83.5801V118.791H91.1601V112.165H106.37V118.791H114V112.165H121.58V118.791H114V125.374H98.79V118.791H91.1601V125.374H76V118.791H68.3701V125.374H53.21V118.791H45.58V125.374H30.3701V118.791H22.79V125.374H7.58005V132H121.58Z" fill="#000001"/>
<path d="M121.58 59.374H106.37V66H98.79V79.2087H106.37V85.7913H121.58V79.2087H129.16V19.7913H106.37V26.374H121.58V59.374Z" fill="#000001"/>
<path d="M106.37 26.374L91.1601 26.374V33H106.37V26.374Z" fill="#000001"/>
<path d="M91.1601 33L76 33V39.5827H91.1601V33Z" fill="#000001"/>
<path d="M53.21 92.374H68.3701V85.7913H76V39.5827H68.3701V66H53.21V72.5827H45.58V85.7913H53.21V92.374Z" fill="#000001"/>
<path d="M144.37 0H30.3701V6.58268H144.37V0Z" fill="#000001"/>
<path d="M22.79 112.165H15.21V118.791H22.79V112.165Z" fill="#000001"/>
<path d="M15.21 112.165V105.583H7.58005V92.374H15.21V85.7913H7.58005V72.5827H15.21V66H7.58005V52.7913H15.21V46.2087H7.58005V33H15.21V26.374H22.79V33H15.21V39.5827H22.79V52.7913H15.21V59.374H22.79V72.5827H15.21V79.2087H22.79V92.374H15.21V99H22.79V105.583H30.3701L30.3701 6.58268H22.79V19.7913H7.58005V26.374H0V125.374H7.58005V112.165H15.21Z" fill="#000001"/>
</svg>
