<svg width="114" height="111" viewBox="0 0 114 111" fill="none" xmlns="http://www.w3.org/2000/svg">
<path d="M114 5.53546H108.277V88.7854H114V5.53546Z" fill="#000001"/>
<path d="M91.1849 111V105.428H96.87V94.3209H108.277V88.7855H22.7775V94.3209H28.4999V99.8927H34.1849V94.3209H45.5924V99.8927H51.2775V94.3209H62.6849V99.8927H68.37V94.3209H79.7774V99.8927H85.4999V94.3209H91.1849V99.8927H85.4999V105.428H74.0924V99.8927H68.37V105.428H56.9999V99.8927H51.2775V105.428H39.9074V99.8927H34.1849V105.428H22.7775V99.8927H17.0924V105.428H5.68494V111H91.1849Z" fill="#000001"/>
<path d="M45.5923 55.4998H51.2773V61.0352H56.9997V66.6071H62.6848V72.1425H68.3698V66.6071H74.0923V61.0352H79.7773V55.4998H85.4997V49.928H91.1848V33.2853H85.4997V27.7498H68.3698V33.2853H62.6848V27.7498H45.5923V33.2853H39.9072V49.928H45.5923V55.4998Z" fill="#000001"/>
<path d="M108.278 0H22.7781V5.53543H108.278V0Z" fill="#000001"/>
<path d="M17.0928 94.3209H11.4077V99.8928H17.0928V94.3209Z" fill="#000001"/>
<path d="M11.4075 94.3208V88.7853H5.68504V77.6781H11.4075V72.1427H5.68504V61.0354H11.4075V55.5H5.68504V44.3927H11.4075V38.8573H5.68504V27.75H11.4075V22.1782H17.0925V27.75H11.4075V33.2854H17.0925V44.3927H11.4075V49.9281H17.0925V61.0354H11.4075V66.6072H17.0925V77.6781H11.4075V83.2499H17.0925V88.7853H22.7776V5.53546H17.0925V16.6427H5.68504V22.1782H0V105.428H5.68504V94.3208H11.4075Z" fill="#000001"/>
</svg>
