<svg width="139" height="136" viewBox="0 0 139 136" fill="none" xmlns="http://www.w3.org/2000/svg">
<g filter="url(#filter0_d_8_161)">
<path d="M121.39 73.6749L117.346 70.9213L112.304 78.3271L104.189 72.802L101.66 76.517L93.5449 70.9919L91.032 74.6826L99.1468 80.2077L91.5916 91.3042L87.5475 88.5507L85.018 92.2657L89.0621 95.0192L84.0363 102.401L88.0804 105.154L105.704 79.2705L109.775 82.0421L87.1088 115.332L83.0381 112.56L72.9534 127.371L85.1389 135.668L95.2236 120.857L91.1529 118.085L121.39 73.6749Z" fill="black"/>
<path d="M119.859 67.2306L111.745 61.7055L109.232 65.3962L117.347 70.9214L119.859 67.2306Z" fill="black"/>
<path d="M84.0363 102.401L79.9922 99.6472L77.4628 103.362L81.5069 106.116L84.0363 102.401Z" fill="black"/>
<path d="M106.702 69.1112L90.4727 58.061L87.9598 61.7517L104.189 72.802L106.702 69.1112Z" fill="black"/>
<path d="M114.257 58.0147L106.143 52.4896L103.63 56.1804L111.744 61.7055L114.257 58.0147Z" fill="black"/>
<path d="M77.463 103.362L69.3482 97.8371L66.8352 101.528L74.9501 107.053L77.463 103.362Z" fill="black"/>
<path d="M85.0181 92.2657L76.9033 86.7406L74.3904 90.4313L82.5052 95.9565L85.0181 92.2657Z" fill="black"/>
<path d="M91.0321 74.6826L82.9172 69.1575L80.4043 72.8482L88.5192 78.3733L91.0321 74.6826Z" fill="black"/>
<path d="M108.672 48.7746L100.557 43.2495L98.0279 46.9645L106.143 52.4897L108.672 48.7746Z" fill="black"/>
<path d="M66.8352 101.528L34.4026 79.4454L31.8897 83.1362L64.3223 105.219L66.8352 101.528Z" fill="black"/>
<path d="M74.3904 90.4313L41.9578 68.3489L39.4449 72.0397L71.8775 94.1221L74.3904 90.4313Z" fill="black"/>
<path d="M80.4044 72.8482L72.3162 67.3412L69.7867 71.0562L77.8749 76.5632L80.4044 72.8482Z" fill="black"/>
<path d="M93.0021 54.346L76.7991 43.3138L74.2696 47.0289L90.4727 58.061L93.0021 54.346Z" fill="black"/>
<path d="M103.07 39.5588L94.9819 34.0518L92.469 37.7425L100.557 43.2495L103.07 39.5588Z" fill="black"/>
<path d="M97.495 30.361L89.3801 24.8359L86.8672 28.5266L94.982 34.0517L97.495 30.361Z" fill="black"/>
<path d="M69.7867 71.0563L61.6719 65.5311L59.159 69.2219L67.2738 74.747L69.7867 71.0563Z" fill="black"/>
<path d="M86.8673 28.5267L78.7525 23.0015L76.2395 26.6923L84.3544 32.2174L86.8673 28.5267Z" fill="black"/>
<path d="M64.2015 61.8161L56.0867 56.291L53.5572 60.006L61.6721 65.5311L64.2015 61.8161Z" fill="black"/>
<path d="M76.2393 26.6922L68.1245 21.1671L65.5951 24.8821L73.7099 30.4073L76.2393 26.6922Z" fill="black"/>
<path d="M36.9154 75.7547L28.8006 70.2296L26.2876 73.9203L34.4025 79.4454L36.9154 75.7547Z" fill="black"/>
<path d="M44.4708 64.6582L36.356 59.1331L33.8431 62.8238L41.9579 68.3489L44.4708 64.6582Z" fill="black"/>
<path d="M58.5994 52.6002L50.4846 47.0751L47.9717 50.7658L56.0865 56.2909L58.5994 52.6002Z" fill="black"/>
<path d="M65.5953 24.8821L57.5071 19.3751L54.9942 23.0659L63.0824 28.5729L65.5953 24.8821Z" fill="black"/>
<path d="M31.33 66.5146L27.2859 63.761L24.7565 67.4761L28.8006 70.2296L31.33 66.5146Z" fill="black"/>
<path d="M36.3559 59.1331L38.8853 55.4181L34.8412 52.6646L42.3964 41.5681L50.4847 47.0751L52.9976 43.3844L44.9094 37.8773L47.4388 34.1623L39.324 28.6372L36.7945 32.3522L40.8386 35.1057L23.2152 60.9894L27.2859 63.7611L32.3118 56.3796L36.3559 59.1331Z" fill="black"/>
<path d="M54.994 23.0658L46.8792 17.5407L44.3663 21.2314L52.4811 26.7566L54.994 23.0658Z" fill="black"/>
<path d="M44.3664 21.2315L40.3223 18.478L35.2799 25.8837L39.324 28.6372L44.3664 21.2315Z" fill="black"/>
</g>
<defs>
<filter id="filter0_d_8_161" x="19.2153" y="17.5407" width="106.175" height="126.128" filterUnits="userSpaceOnUse" color-interpolation-filters="sRGB">
<feFlood flood-opacity="0" result="BackgroundImageFix"/>
<feColorMatrix in="SourceAlpha" type="matrix" values="0 0 0 0 0 0 0 0 0 0 0 0 0 0 0 0 0 0 127 0" result="hardAlpha"/>
<feOffset dy="4"/>
<feGaussianBlur stdDeviation="2"/>
<feComposite in2="hardAlpha" operator="out"/>
<feColorMatrix type="matrix" values="0 0 0 0 0 0 0 0 0 0 0 0 0 0 0 0 0 0 0.25 0"/>
<feBlend mode="normal" in2="BackgroundImageFix" result="effect1_dropShadow_8_161"/>
<feBlend mode="normal" in="SourceGraphic" in2="effect1_dropShadow_8_161" result="shape"/>
</filter>
</defs>
</svg>
