<svg width="78" height="58" viewBox="0 0 78 58" fill="none" xmlns="http://www.w3.org/2000/svg">
<path d="M74.295 19.3212H51.9919V22.0944H48.2869V24.8494H44.5819V27.6044H40.8525V8.28312H44.5819V2.755H40.8525V0H37.1475V2.755H33.4181V8.28312H29.7131V13.8112H26.0081V19.3212H3.705V22.0944H0V24.8494H3.705V27.6044H7.43437V30.3775H14.8687V33.1325H18.5737V38.6606H22.2788V35.9056H29.7131V33.1325H37.1475V35.9056H33.4181V38.6606H29.7131V41.4156H26.0081V44.1887H22.2788V46.9437H18.5737V49.7169H14.8687V52.4719H11.1394V49.7169H7.43437V55.2269H11.1394V58H18.5737V55.2269H22.2788V52.4719H29.7131V49.7169H33.4181V46.9437H37.1475V44.1887H40.8525V35.9056H44.5819V38.6606H48.2869V41.4156H51.9919V44.1887H55.7213V46.9437H59.4262V49.7169H63.1312V55.2269H59.4262V58H66.8606V55.2269H70.5656V49.7169H66.8606V44.1887H63.1312V38.6606H59.4262V33.1325H63.1312V30.3775H55.7213V33.1325H40.8525V30.3775H51.9919V27.6044H55.7213V24.8494H70.5656V27.6044H74.295V24.8494H78V22.0944H74.295V19.3212ZM33.4181 30.3775H26.0081V27.6044H18.5737V24.8494H11.1394V22.0944H29.7131V24.8494H33.4181V30.3775Z" fill="#000001"/>
<path d="M70.5657 27.6044H63.1313V30.3775H70.5657V27.6044Z" fill="#000001"/>
<path d="M59.4262 52.4719H55.7212V55.2269H59.4262V52.4719Z" fill="#000001"/>
<path d="M55.7212 49.7169H48.2869V52.4719H55.7212V49.7169Z" fill="#000001"/>
<path d="M51.9919 13.8112H48.2869V19.3212H51.9919V13.8112Z" fill="#000001"/>
<path d="M48.2868 46.9438H44.5818V49.7169H48.2868V46.9438Z" fill="#000001"/>
<path d="M48.2868 8.28311H44.5818V13.8112H48.2868V8.28311Z" fill="#000001"/>
<path d="M44.5819 44.1888H40.8525V46.9438H44.5819V44.1888Z" fill="#000001"/>
<path d="M18.5737 38.6606H14.8687V44.1887H18.5737V38.6606Z" fill="#000001"/>
<path d="M14.8688 44.1888H11.1394V49.7169H14.8688V44.1888Z" fill="#000001"/>
</svg>
