<svg width="1027" height="34" viewBox="0 0 1027 34" fill="none" xmlns="http://www.w3.org/2000/svg">
<path d="M1.00024 21.7568C8.3535 20.6152 21.7008 17.7438 52.7293 14.5698C106.822 9.03638 148.734 14.2671 162.081 12.8314C188.402 10.0003 216.339 6.18925 231.57 11.0671C244.655 15.2579 257.206 21.1687 277.594 29.2206C290.335 34.2522 306.183 33.2768 372.117 31.8584C400.833 31.2407 416.883 27.5341 455.298 22.639C478.633 19.6655 520.096 21.7568 542.78 22.0422C577.41 22.4779 593.673 26.3579 646.583 25.8044C674.77 25.5095 690.246 20.0271 700.217 19.4563C718.362 18.4176 751.701 16.5676 787.331 16.2822C823.876 15.9895 856.608 13.6963 866.267 9.95141C877.971 5.41391 892.215 3.90601 907.479 3.0152C920.711 2.24295 933.839 8.47249 946.462 12.5201C968.468 19.5761 980.633 9.09519 992.164 7.63357C996.988 6.77736 1002.94 5.04763 1010.35 3.03249C1014.08 2.15898 1017.76 1.58817 1026 1.00006" stroke="black" stroke-width="2" stroke-linecap="round"/>
</svg>
