<svg width="101" height="72" viewBox="0 0 101 72" fill="none" xmlns="http://www.w3.org/2000/svg">
<path d="M101 15.8219H96.2024V23.7069H101V15.8219Z" fill="#000001"/>
<path d="M86.5759 31.6178H91.3734V47.4397H57.7278V51.3952H62.5253V55.3377H57.7278V59.3061H91.3734V67.2171H96.2025V23.7069H86.5759V31.6178ZM72.1518 55.3247H67.3228V51.3952H72.1518V55.3247ZM91.3734 55.3247H81.7468V51.3952H91.3734V55.3247Z" fill="#000001"/>
<path d="M91.3734 19.7643V15.8218H96.2025V11.8534H86.5759V15.8218H81.7468V23.7068H86.5759V19.7643H91.3734Z" fill="#000001"/>
<path d="M52.8987 67.204V63.2356H48.1012V67.204H9.62646V71.1465H91.3733V67.204H52.8987Z" fill="#000001"/>
<path d="M67.3229 35.5603V39.5288H72.152V43.4713H76.9495V39.5288H81.747V35.5603H86.576V31.6178H81.747V27.6753H76.9495V23.7069H72.152V27.6753H67.3229V31.6178H62.5254V35.5603H67.3229Z" fill="#000001"/>
<path d="M62.5253 27.6753H57.7278V31.6178H62.5253V27.6753Z" fill="#000001"/>
<path d="M62.5253 3.9425H57.7278V15.8219H62.5253V3.9425Z" fill="#000001"/>
<path d="M57.7277 59.2931H52.8987V63.2356H57.7277V59.2931Z" fill="#000001"/>
<path d="M57.7277 43.4712H52.8987V47.4396H57.7277V43.4712Z" fill="#000001"/>
<path d="M57.7277 23.7069H52.8987V27.6753H57.7277V23.7069Z" fill="#000001"/>
<path d="M52.8988 51.3822H48.1013V55.3247H52.8988V51.3822Z" fill="#000001"/>
<path d="M52.8988 39.5288H48.1013V43.4713H52.8988V39.5288Z" fill="#000001"/>
<path d="M52.8988 19.7644H57.7278V15.8219H43.2722V19.7644H48.1013V23.7069H52.8988V19.7644Z" fill="#000001"/>
<path d="M52.8988 7.91089H48.1013V11.8534H52.8988V7.91089Z" fill="#000001"/>
<path d="M57.7278 0H43.2722V3.9425H57.7278V0Z" fill="#000001"/>
<path d="M48.1013 59.2931H43.2722V63.2356H48.1013V59.2931Z" fill="#000001"/>
<path d="M48.1013 43.4712H43.2722V47.4396H48.1013V43.4712Z" fill="#000001"/>
<path d="M48.1013 23.7069H43.2722V27.6753H48.1013V23.7069Z" fill="#000001"/>
<path d="M43.2721 27.6753H38.4746V31.6178H43.2721V27.6753Z" fill="#000001"/>
<path d="M43.2721 3.9425H38.4746V15.8219H43.2721V3.9425Z" fill="#000001"/>
<path d="M19.2531 35.5603V39.5288H24.0506V43.4713H28.8481V39.5288H33.6772V35.5603H38.4747V31.6178H33.6772V27.6753H28.8481V23.7069H24.0506V27.6753H19.2531V31.6178H14.4241V35.5603H19.2531Z" fill="#000001"/>
<path d="M9.62667 19.7643H14.4242V23.7068H19.2532V15.8218H14.4242V11.8534H4.79761V15.8218H9.62667V19.7643Z" fill="#000001"/>
<path d="M43.2723 59.2931V55.3247H38.4748V51.3952H43.2723V47.4527H9.62667V31.6308H14.4242V23.7198H4.79761V67.217H9.62667V59.3061L43.2723 59.2931ZM28.8482 51.3952H33.6773V55.3377H28.8482V51.3952ZM9.62667 51.3952H19.2532V55.3377H9.62667V51.3952Z" fill="#000001"/>
<path d="M4.7975 15.8219H0V23.7069H4.7975V15.8219Z" fill="#000001"/>
</svg>
